<svg width="86" height="34" viewBox="0 0 86 34" fill="none" xmlns="http://www.w3.org/2000/svg">
<path d="M41.406 13.4629C40.257 12.8138 38.9517 12.4781 37.6257 12.4906C36.2936 12.4795 34.9824 12.815 33.8256 13.4629C32.6938 14.0941 31.7585 15.0153 31.1197 16.1279C30.4688 17.2735 30.1352 18.5663 30.1519 19.8776C30.1361 21.1763 30.4468 22.4589 31.0565 23.6118C31.6331 24.7054 32.5014 25.6251 33.5688 26.273C34.7533 26.9825 36.1299 27.3218 37.5157 27.2457C38.9014 27.1695 40.2308 26.6817 41.3271 25.8469C41.4614 26.2813 41.751 26.6535 42.1426 26.8954C42.5343 27.1373 43.0017 27.2327 43.4593 27.1639C43.9168 27.0952 44.3337 26.867 44.6335 26.5212C44.9333 26.1754 45.096 25.7352 45.0916 25.2814V19.8776C45.1063 18.5624 44.7641 17.2669 44.1001 16.1241C43.4573 15.0194 42.5278 14.1012 41.406 13.4629ZM37.6257 15.9691C38.293 15.9578 38.9501 16.131 39.5218 16.4688C40.0829 16.7993 40.5417 17.2734 40.8491 17.8401C41.1814 18.4636 41.3498 19.1586 41.3389 19.8621C41.3507 20.5603 41.1837 21.2503 40.853 21.8687C40.5451 22.4383 40.0849 22.915 39.5218 23.2477C38.9456 23.5749 38.2915 23.7471 37.6257 23.7471C36.9599 23.7471 36.3058 23.5749 35.7296 23.2477C35.1663 22.9098 34.7032 22.433 34.3865 21.8648C34.0467 21.2507 33.8752 20.5607 33.8888 19.8621C33.8776 19.1601 34.0489 18.4669 34.3865 17.8478C34.6984 17.2732 35.1624 16.7915 35.7296 16.4533C36.3029 16.1209 36.9599 15.9532 37.6257 15.9691Z" fill="#18A0FB"/>
<path d="M51.5937 23.4221H50.9774C50.9221 23.4221 50.8115 23.4221 50.6575 23.1626C50.4692 22.8041 50.3806 22.4033 50.4007 22.0005V8.77586C50.4007 8.28272 50.201 7.80979 49.8454 7.46109C49.4898 7.1124 49.0075 6.9165 48.5046 6.9165C48.0017 6.9165 47.5195 7.1124 47.1639 7.46109C46.8083 7.80979 46.6085 8.28272 46.6085 8.77586V22.0121C46.5973 22.8974 46.7763 23.7751 47.1339 24.5881C47.4614 25.3448 48.0011 25.9949 48.6903 26.463C49.3643 26.9128 50.1621 27.1506 50.9774 27.1447H51.0248C51.5973 27.1641 52.1604 26.9995 52.6286 26.676C52.8583 26.5202 53.0456 26.3116 53.1744 26.0686C53.3031 25.8256 53.3693 25.5554 53.3673 25.2815C53.3826 24.8038 53.2117 24.3384 52.8893 23.9799C52.7275 23.8005 52.5278 23.6577 52.304 23.5614C52.0803 23.4651 51.838 23.4176 51.5937 23.4221Z" fill="#18A0FB"/>
<path d="M58.5145 23.4221H57.8982C57.8429 23.4221 57.7323 23.4221 57.5783 23.1665C57.3914 22.8075 57.3029 22.407 57.3215 22.0044V8.77586C57.3215 8.28272 57.1218 7.80979 56.7662 7.46109C56.4106 7.1124 55.9283 6.9165 55.4254 6.9165C54.9225 6.9165 54.4403 7.1124 54.0847 7.46109C53.7291 7.80979 53.5293 8.28272 53.5293 8.77586V22.0121C53.5185 22.8987 53.6975 23.7775 54.0547 24.592C54.3862 25.3453 54.9251 25.9932 55.6111 26.463C56.2849 26.9132 57.0829 27.1511 57.8982 27.1447H57.9456C58.5181 27.1641 59.0813 26.9995 59.5494 26.676C59.7791 26.5202 59.9664 26.3116 60.0952 26.0686C60.2239 25.8256 60.2902 25.5554 60.2881 25.2815C60.3014 24.8041 60.1308 24.3394 59.8101 23.9799C59.6484 23.8003 59.4488 23.6573 59.225 23.561C59.0013 23.4647 58.7588 23.4173 58.5145 23.4221Z" fill="#18A0FB"/>
<path d="M72.0558 14.8885C72.0976 14.745 72.1163 14.596 72.1111 14.4469C72.1111 14.0053 71.9215 13.3816 71.0208 12.8974C70.282 12.5531 69.4678 12.3934 68.6507 12.4326C67.7559 12.4278 66.8706 12.6128 66.0554 12.9749C65.685 13.1406 65.333 13.3431 65.0047 13.5792C64.8579 13.2561 64.6118 12.9861 64.3009 12.807C63.99 12.6278 63.6297 12.5483 63.2705 12.5798C63.0168 12.5619 62.7622 12.5977 62.5239 12.6849C62.2856 12.772 62.0692 12.9084 61.8894 13.0847C61.7095 13.2611 61.5705 13.4733 61.4816 13.707C61.3928 13.9407 61.3562 14.1904 61.3744 14.4391V25.2853C61.3595 25.5384 61.3985 25.7917 61.489 26.0291C61.5794 26.2666 61.7193 26.4829 61.8998 26.6644C62.0846 26.8295 62.3007 26.9573 62.536 27.0404C62.7712 27.1235 63.0208 27.1603 63.2705 27.1486C63.5279 27.1624 63.7854 27.1238 64.0267 27.0351C64.2681 26.9464 64.4881 26.8096 64.6729 26.6334C64.8416 26.4516 64.9721 26.239 65.0568 26.0076C65.1415 25.7763 65.1789 25.5309 65.1666 25.2853V18.2043C65.1532 17.8852 65.2218 17.568 65.3661 17.2817C65.5103 16.9953 65.7256 16.7492 65.9922 16.5657C66.7222 16.0863 67.5919 15.8537 68.469 15.9034C68.9651 15.9166 69.4592 15.9698 69.9464 16.0622C70.1098 16.0987 70.2765 16.1195 70.4441 16.1242C70.8171 16.1329 71.1816 16.0146 71.4755 15.7892C71.7694 15.5639 71.9745 15.2455 72.0558 14.8885Z" fill="#18A0FB"/>
<path d="M85.0085 16.1241C84.368 15.0204 83.4413 14.1023 82.3224 13.4629C81.1733 12.8138 79.8681 12.4781 78.542 12.4906C77.2088 12.4801 75.8964 12.8155 74.738 13.4629C73.6043 14.0942 72.6664 15.0153 72.0242 16.1279C71.3719 17.2733 71.0356 18.5658 71.0485 19.8776C71.0327 21.1763 71.3434 22.4589 71.9531 23.6118C72.532 24.7038 73.3997 25.623 74.4654 26.273C75.6505 26.9829 77.0278 27.3223 78.4142 27.2462C79.8007 27.17 81.1307 26.682 82.2276 25.8469C82.3162 26.1395 82.4778 26.4057 82.6977 26.6217C82.9668 26.8897 83.3114 27.0727 83.6873 27.1472C84.0633 27.2217 84.4534 27.1844 84.8075 27.0399C85.1616 26.8954 85.4636 26.6504 85.6747 26.3364C85.8858 26.0223 85.9963 25.6536 85.9921 25.2775V19.8776C86.0092 18.5631 85.6698 17.2677 85.0085 16.1241ZM78.542 15.9691C79.208 15.9586 79.8637 16.1317 80.4342 16.4688C80.9974 16.798 81.4578 17.2723 81.7654 17.8401C82.0964 18.4641 82.2647 19.1588 82.2552 19.8621C82.27 20.5611 82.1014 21.2521 81.7654 21.8687C81.5265 22.2957 81.2024 22.6712 80.8125 22.973C80.4226 23.2747 79.9748 23.4965 79.4957 23.6251C79.0167 23.7538 78.5161 23.7867 78.0238 23.7218C77.5316 23.657 77.0576 23.4958 76.6301 23.2477C76.0632 22.9131 75.598 22.4356 75.2831 21.8648C74.9473 21.255 74.7772 20.5706 74.7894 19.8776C74.7795 19.1753 74.9521 18.4821 75.291 17.8633C75.6005 17.287 76.065 16.8047 76.6341 16.4688C77.2092 16.1289 77.8707 15.9556 78.542 15.9691Z" fill="#18A0FB"/>
<path d="M26.6441 10.4455L26.5888 10.4106L25.862 6.92432L22.2515 7.63707L22.1843 7.59446L22.1369 7.66031L17.7443 8.5435L20.383 10.2557C18.3171 13.2926 16.259 16.3373 14.1733 19.3626C13.7763 19.9436 13.296 20.4654 12.7473 20.9121C11.9431 21.5454 10.9369 21.8803 9.90577 21.8576C8.87463 21.8349 7.88471 21.4562 7.11033 20.7881C6.31071 20.1521 5.76235 19.2624 5.55973 18.2725C5.35711 17.2826 5.51293 16.2544 6.00032 15.365C6.33028 14.7369 6.80937 14.1957 7.39722 13.7872C7.98507 13.3786 8.66446 13.1146 9.37813 13.0174C10.0918 12.9202 10.8189 12.9926 11.498 13.2286C12.1772 13.4646 12.7885 13.8572 13.2806 14.3734C13.9408 15.1262 14.5606 15.9123 15.1372 16.7285L18.3961 11.933C17.1979 10.1757 15.4553 8.84275 13.4254 8.13104C11.3956 7.41933 9.18619 7.36655 7.12343 7.98048C5.06067 8.59442 3.25389 9.84253 1.96988 11.5405C0.685875 13.2385 -0.00730133 15.2964 -0.00730133 17.4103C-0.00730133 19.5242 0.685875 21.5821 1.96988 23.2801C3.25389 24.9781 5.06067 26.2262 7.12343 26.8401C9.18619 27.454 11.3956 27.4013 13.4254 26.6896C15.4553 25.9778 17.1979 24.6449 18.3961 22.8876C20.5661 19.657 22.7255 16.4186 24.8744 13.1725L27.4934 14.8731L26.5967 10.5152L26.6441 10.4455Z" fill="url(#paint0_linear_26731_5334)"/>
<path d="M25.9726 23.3058L25.4117 22.4885L22.4845 18.1035C21.4496 19.6297 20.4818 21.0397 19.5337 22.4691L19.2612 22.8565C19.9169 23.8791 20.6793 25.0296 21.414 26.122C21.7363 26.5886 22.2028 26.9415 22.7447 27.1289C23.2867 27.3163 23.8757 27.3283 24.4252 27.1632C24.9747 26.998 25.4556 26.6644 25.7974 26.2113C26.1392 25.7583 26.3239 25.2097 26.3242 24.6461C26.3182 24.1738 26.1817 23.7119 25.9291 23.3097L25.9726 23.3058Z" fill="url(#paint1_linear_26731_5334)"/>
<defs>
<linearGradient id="paint0_linear_26731_5334" x1="-4.06281e-05" y1="17.1004" x2="27.5132" y2="17.1004" gradientUnits="userSpaceOnUse">
<stop stop-color="#18A0FB"/>
<stop offset="1" stop-color="#36D3FF"/>
</linearGradient>
<linearGradient id="paint1_linear_26731_5334" x1="1435.18" y1="986.099" x2="1561.53" y2="986.099" gradientUnits="userSpaceOnUse">
<stop stop-color="#18A0FB"/>
<stop offset="1" stop-color="#36D3FF"/>
</linearGradient>
</defs>
</svg>
