<svg width="80" height="80" viewBox="0 0 80 80" fill="none" xmlns="http://www.w3.org/2000/svg">
<path opacity="0.5" d="M36.1053 37.8163V29L9.81592 34.8775L36.1053 37.8163Z" fill="#EAEAEA"/>
<path d="M36.1053 29L9.81592 34.8775L36.1053 41.7346V29Z" fill="#8C8986"/>
<path d="M36.1052 41.7346V29L68.0001 32.5L36.1052 41.7346Z" fill="#707070"/>
<path d="M9.81592 69.3387V34.8774L40.9737 37.8162V76.9997L10.601 70.3154C10.1425 70.2145 9.81592 69.8082 9.81592 69.3387Z" fill="#9C9188"/>
<path d="M67.9999 32.5V68.9579C67.9999 69.4101 67.6965 69.806 67.2598 69.9236L40.9736 77V37.8165L67.9999 32.5Z" fill="#CFC4BB"/>
<path d="M3.2573 47.1313L9.81577 34.8774L40.9736 37.8162L34.2851 53.1969C34.2107 53.3681 34.0276 53.4651 33.8441 53.4304L3.53582 47.7132C3.2703 47.6631 3.1298 47.3696 3.2573 47.1313Z" fill="#E1D9D0"/>
<path d="M76.6802 44.2412L67.9999 32.5L40.9736 37.8165L49.5748 54.1617C49.6677 54.3382 49.8764 54.4193 50.0641 54.3519L76.4938 44.8554C76.746 44.7648 76.8395 44.4567 76.6802 44.2412Z" fill="#EFE8E1"/>
<rect x="29" y="4" width="34" height="20" rx="10" fill="#D3DFE6"/>
<circle cx="38.2001" cy="13.9" r="1.9" fill="white"/>
<circle cx="46.0001" cy="13.9" r="1.9" fill="white"/>
<circle cx="53.7999" cy="13.9" r="1.9" fill="white"/>
<path d="M48 24H44L45.5008 26.2512C45.7383 26.6074 46.2617 26.6074 46.4992 26.2512L48 24Z" fill="#D3DFE6"/>
</svg>
